<svg xmlns="http://www.w3.org/2000/svg" viewBox="0 0 1000 1000">
  <g fill="#282828">
    <path d="m649.3,539.8l0,-162.1l0,-12.7l-11,-6.3l-140.3,-81l-140.4,81l-11,6.3l0,12.7l0,162.1l140.4,81.1l11,6.3l10.9,-6.3l140.4,-81.1zm-151.3,-236.9l118.5,68.4l-13.4,7.8l-105.1,60.6l-118.4,-68.4l118.4,-68.4zm129.4,224.2l-118.5,68.4l0,-136.8l105.1,-60.7l13.4,-7.7l0,136.8zm-140.4,68.4l-118.5,-68.4l0,-136.8l118.5,68.4l0,136.8z"/>
    <path d="m345.1,740.5l147.4,85.1l0,-170.2l-147.4,-85.1l0,170.2z"/>
    <path d="m327.1,175.3l-147.4,85.1l147.4,85l147.4,-85l-147.4,-85.1z"/>
    <path d="m172.9,443l147.4,85.1l0,-170.2l-147.4,-85.1l0,170.2z"/>
    <path d="m506.6,825.6l147.3,-85.1l0,-170.2l-147.3,85.1l0,170.2z"/>
    <path d="m671.9,175.3l-147.3,85.1l147.3,85l147.4,-85l-147.4,-85.1z"/>
    <path d="m678.8,357.9l0,170.2l147.3,-85.1l0,-170.2l-147.3,85.1z"/>
  </g>
</svg>
